  <svg version="1.0" xmlns="http://www.w3.org/2000/svg"  width="1056.000000pt" height="1233.000000pt" viewBox="0 0 1056.000000 1233.000000"  preserveAspectRatio="xMidYMid meet"> <g transform="translate(0.000000,1233.000000) scale(0.100000,-0.100000)" fill="#006045" stroke="none"> <path d="M1090 11762 c-105 -11 -178 -57 -223 -140 -36 -67 -42 -117 -24 -204 9 -40 18 -100 21 -133 4 -33 13 -107 21 -165 7 -58 19 -143 25 -190 6 -47 15 -134 20 -195 5 -60 20 -195 35 -300 14 -104 30 -230 36 -280 5 -49 14 -103 19 -120 5 -16 14 -75 19 -130 11 -106 23 -205 47 -375 8 -58 14 -133 14 -167 0 -35 6 -98 14 -140 8 -43 20 -127 26 -188 20 -187 37 -318 48 -370 6 -27 20 -124 32 -215 11 -91 27 -216 36 -279 8 -62 17 -151 19 -196 3 -45 9 -102 14 -126 5 -24 12 -80 16 -124 4 -44 13 -120 21 -170 8 -49 14 -110 14 -134 0 -25 6 -70 14 -100 14 -54 26 -152 47 -366 11 -119 25 -227 46 -350 8 -49 21 -142 28 -205 8 -63 21 -167 29 -230 9 -63 23 -189 31 -280 8 -91 20 -190 25 -220 5 -30 14 -98 20 -150 16 -152 39 -321 49 -370 6 -25 13 -83 16 -130 4 -47 11 -103 16 -125 8 -38 18 -127 39 -350 12 -131 62 -507 91 -685 5 -30 13 -95 19 -145 6 -49 17 -142 25 -205 26 -211 35 -294 40 -370 3 -41 12 -120 20 -175 8 -55 19 -140 25 -190 6 -49 17 -135 26 -190 19 -131 36 -262 68 -530 15 -121 33 -276 42 -345 8 -69 20 -163 25 -210 5 -47 14 -105 20 -130 6 -25 13 -85 15 -135 15 -303 186 -540 469 -651 l70 -27 470 -7 c777 -11 4661 -4 4729 9 33 6 107 34 165 62 146 71 238 165 321 329 49 95 79 252 125 645 9 77 20 174 25 215 6 41 15 129 20 195 6 66 15 138 20 160 5 22 10 62 10 88 0 46 14 148 46 342 20 123 72 535 79 625 6 89 25 254 35 309 5 31 14 99 20 151 9 86 20 170 49 375 15 104 29 215 56 465 14 124 31 266 40 315 26 158 55 392 55 446 0 28 6 93 14 143 15 96 30 207 51 396 7 63 18 131 24 150 6 19 11 58 11 86 0 29 6 87 14 130 8 44 17 115 21 159 3 44 10 100 15 125 5 25 14 101 20 170 11 136 33 327 48 430 6 36 14 99 17 140 4 41 12 86 17 100 9 23 18 93 53 390 8 69 19 152 25 185 5 33 10 89 10 125 0 36 5 81 10 101 6 20 14 83 19 140 13 147 29 280 46 379 8 47 17 108 20 135 3 28 12 97 20 155 34 246 55 418 55 455 0 37 9 115 45 375 8 58 17 134 20 170 4 36 10 83 16 105 5 22 13 87 18 145 6 58 14 139 20 180 6 41 17 138 27 215 9 77 20 163 26 190 5 28 16 104 24 170 7 66 21 172 29 235 8 63 19 170 25 238 10 109 10 129 -6 178 -22 71 -79 135 -146 165 l-53 24 -985 -2 c-542 -1 -1147 -2 -1345 -2 -198 0 -1114 0 -2035 0 -1852 0 -2008 0 -3180 2 -448 1 -826 1 -840 -1z m6088 -542 l1832 0 40 -36 40 -36 0 -86 c0 -81 -10 -160 -46 -382 -9 -52 -20 -133 -24 -180 -5 -47 -13 -116 -19 -155 -16 -107 -32 -258 -41 -380 -4 -60 -13 -139 -19 -175 -6 -36 -18 -126 -27 -200 -9 -74 -20 -160 -25 -190 -14 -88 -48 -362 -69 -565 -5 -44 -16 -118 -24 -165 -27 -148 -46 -296 -46 -351 0 -30 -7 -81 -14 -114 -8 -33 -17 -106 -20 -163 -3 -57 -10 -133 -15 -170 -6 -37 -17 -130 -26 -207 -9 -77 -23 -185 -31 -240 -62 -426 -93 -663 -104 -790 -12 -137 -33 -311 -71 -590 -24 -174 -39 -294 -49 -385 -6 -52 -18 -138 -26 -190 -7 -52 -14 -117 -14 -143 0 -27 -7 -94 -15 -150 -17 -122 -51 -388 -60 -472 -3 -33 -10 -74 -16 -91 -5 -16 -14 -70 -19 -120 -13 -123 -27 -240 -45 -364 -9 -58 -17 -136 -19 -175 -3 -69 -8 -91 -47 -230 -42 -144 -110 -277 -243 -471 -44 -64 -187 -212 -281 -292 -75 -63 -289 -197 -445 -278 -73 -38 -352 -154 -370 -154 -7 0 -62 -15 -124 -34 -163 -50 -334 -90 -454 -106 -41 -6 -82 -15 -92 -20 -10 -6 -39 -10 -63 -10 -25 0 -80 -6 -123 -14 -173 -31 -588 -40 -1054 -21 -184 8 -353 19 -375 24 -22 6 -63 11 -90 11 -28 0 -66 5 -85 10 -19 6 -67 15 -106 20 -39 5 -120 23 -180 40 -60 17 -143 40 -184 51 -70 19 -206 62 -310 96 -45 15 -113 44 -160 68 -98 50 -179 93 -200 106 -14 9 -54 33 -90 54 -170 101 -420 315 -496 425 -13 19 -49 71 -80 115 -104 150 -160 280 -204 480 -10 44 -20 87 -23 95 -8 19 -59 411 -77 595 -21 204 -41 373 -55 471 -8 56 -15 121 -15 145 -1 24 -5 64 -11 89 -9 43 -25 155 -49 345 -6 50 -18 138 -26 197 -7 59 -14 124 -14 145 0 21 -4 54 -10 73 -5 19 -23 148 -39 285 -17 138 -33 268 -37 290 -3 22 -7 69 -10 105 -5 66 -14 146 -33 300 -35 269 -43 334 -56 415 -8 50 -17 122 -20 160 -3 39 -10 90 -15 115 -5 25 -14 92 -20 150 -39 390 -54 518 -109 895 -16 110 -37 263 -46 340 -9 77 -20 176 -25 220 -5 44 -12 112 -15 150 -3 39 -12 120 -20 180 -8 61 -22 173 -31 250 -8 77 -22 172 -30 210 -7 39 -18 108 -23 155 -6 47 -21 173 -35 280 -14 107 -28 231 -31 275 -3 44 -12 125 -20 179 -27 181 -20 216 50 262 28 19 73 19 1899 21 1028 2 1872 5 1875 9 3 3 19 3 36 -1 16 -3 855 -5 1863 -5z"/> </g> </svg> 