                                        <svg width="26" height="24" viewBox="0 0 26 24" fill="none" xmlns="http://www.w3.org/2000/svg">
                                            <path d="M12.6735 23.2559L10.8358 21.6083C8.70247 19.6862 6.93874 18.028 5.54465 16.634C4.15057 15.2399 3.04164 13.9884 2.21786 12.8794C1.39408 11.7705 0.818496 10.7513 0.491098 9.82196C0.163699 8.89257 0 7.94206 0 6.97042C0 4.98491 0.665358 3.32679 1.99608 1.99608C3.32679 0.665358 4.98491 0 6.97042 0C8.06879 0 9.11435 0.232347 10.1071 0.697042C11.0999 1.16174 11.9553 1.81653 12.6735 2.66143C13.3917 1.81653 14.2471 1.16174 15.2399 0.697042C16.2326 0.232347 17.2782 0 18.3766 0C20.3621 0 22.0202 0.665358 23.3509 1.99608C24.6816 3.32679 25.347 4.98491 25.347 6.97042C25.347 7.94206 25.1833 8.89257 24.8559 9.82196C24.5285 10.7513 23.9529 11.7705 23.1291 12.8794C22.3053 13.9884 21.1964 15.2399 19.8023 16.634C18.4082 18.028 16.6445 19.6862 14.5111 21.6083L12.6735 23.2559Z" fill="#f02d3d" />
                                        </svg>