<svg width="26" height="24" viewBox="0 0 26 24" fill="none" xmlns="http://www.w3.org/2000/svg">
<path d="M18.377 1.125C20.0822 1.12509 21.4486 1.6849 22.5557 2.79199C23.6626 3.8991 24.2217 5.26548 24.2217 6.9707C24.2216 7.8131 24.0806 8.6373 23.7949 9.44824C23.5167 10.2381 23.0069 11.1572 22.2256 12.209C21.4452 13.2595 20.3768 14.4689 19.0068 15.8389C17.6316 17.214 15.8836 18.8569 13.7598 20.7705L12.6729 21.7441L11.5869 20.7705C9.46311 18.8569 7.71502 17.214 6.33984 15.8389C4.96982 14.4688 3.90152 13.2595 3.12109 12.209C2.33977 11.1572 1.82999 10.2381 1.55176 9.44824C1.2661 8.63732 1.12503 7.81308 1.125 6.9707C1.125 5.2653 1.68482 3.89916 2.79199 2.79199C3.89916 1.68482 5.2653 1.125 6.9707 1.125C7.90438 1.12504 8.7869 1.32128 9.62988 1.71582C10.4747 2.11128 11.2015 2.66627 11.8164 3.38965C12.0302 3.64112 12.3438 3.78613 12.6738 3.78613C13.0037 3.78603 13.3166 3.64103 13.5303 3.38965C14.1452 2.66619 14.8719 2.11131 15.7168 1.71582C16.5599 1.32116 17.4431 1.125 18.377 1.125Z" stroke="#6C7B6D" stroke-width="2.25" stroke-linejoin="round"/>
</svg>
