<svg width="17" height="24" viewBox="0 0 17 24" fill="none" xmlns="http://www.w3.org/2000/svg">
                                            <path d="M15.7828 5.73006L11.56 3.87681L15.7827 2.02364C16.323 1.78653 16.5664 1.16168 16.3263 0.628118C16.0861 0.0944813 15.4532 -0.145729 14.913 0.09138L9.9944 2.24996V1.05744C9.9944 0.473546 9.51502 0.000173275 8.92371 0.000173275H3.92715C3.33584 0.000173275 2.85646 0.473546 2.85646 1.05744V5.65245C1.13536 6.79176 0 8.72994 0 10.9252C0 10.9336 0.00107053 10.9415 0.00128467 10.9498V22.2027C0.00128467 22.7866 0.480669 23.26 1.07198 23.26H11.7789C12.3702 23.26 12.8496 22.7866 12.8496 22.2027V10.9252C12.8496 10.9142 12.8482 10.9035 12.8479 10.8925C12.8367 8.71175 11.7056 6.78788 9.9944 5.65407V5.50366L14.913 7.66224C15.0544 7.72427 15.202 7.75366 15.3473 7.75366C15.7575 7.75366 16.1489 7.51951 16.3263 7.1255C16.5664 6.59201 16.3231 5.96716 15.7828 5.73006ZM10.5714 9.86798H2.277C2.75367 8.04603 4.4323 6.69618 6.42429 6.69618C8.4162 6.69618 10.0948 8.04603 10.5714 9.86798ZM10.7082 21.1455H2.14267V11.9825H10.7082V21.1455ZM6.42429 4.58165C5.9342 4.58165 5.45681 4.63635 4.99791 4.73947V2.1147H7.85309V3.85595C7.85302 3.85729 7.85309 3.85863 7.85309 3.86004V3.89366C7.85309 3.895 7.85302 3.89634 7.85309 3.89774V4.74003C7.39341 4.63649 6.91524 4.58165 6.42429 4.58165Z" fill="#71717b" />
                                        </svg>