<svg width="23" height="23" viewBox="-3.5 -3 30 30" fill="none" xmlns="http://www.w3.org/2000/svg"><rect x="-3.5" y="-3" width="30" height="30" rx="60" ry="60" fill="#ffffff" pointer-events="none" data-ilovesvg-bg="1"/>
                                <path d="M11.25 22.8125C9.91667 22.8125 8.72396 22.4688 7.67188 21.7812C6.61979 21.0938 5.76042 20.1875 5.09375 19.0625L2.125 20.75L0.875 18.5938L4.09375 16.7188C4.03125 16.4896 3.97917 16.2552 3.9375 16.0156C3.89583 15.776 3.85417 15.5417 3.8125 15.3125H0V12.8125H3.8125C3.85417 12.5625 3.89583 12.3177 3.9375 12.0781C3.97917 11.8385 4.03125 11.6042 4.09375 11.375L0.875 9.5L2.125 7.34375L5.0625 9.0625C5.22917 8.77083 5.42188 8.48438 5.64062 8.20312C5.85938 7.92188 6.08333 7.66667 6.3125 7.4375C6.27083 7.29167 6.25 7.14583 6.25 7C6.25 6.85417 6.25 6.70833 6.25 6.5625C6.25 6.0625 6.32292 5.58333 6.46875 5.125C6.61458 4.66667 6.8125 4.23958 7.0625 3.84375L5 1.78125L6.75 0L8.9375 2.125C9.29167 1.9375 9.66146 1.79688 10.0469 1.70312C10.4323 1.60938 10.8333 1.5625 11.25 1.5625C11.6667 1.5625 12.0729 1.61458 12.4688 1.71875C12.8646 1.82292 13.2396 1.96875 13.5938 2.15625L15.75 0L17.5 1.78125L15.4375 3.84375C15.6875 4.23958 15.8802 4.66667 16.0156 5.125C16.151 5.58333 16.2188 6.0625 16.2188 6.5625C16.2188 6.70833 16.2188 6.84896 16.2188 6.98438C16.2188 7.11979 16.1979 7.26042 16.1562 7.40625C16.3854 7.63542 16.6094 7.89583 16.8281 8.1875C17.0469 8.47917 17.2396 8.77083 17.4062 9.0625L20.375 7.375L21.625 9.53125L18.375 11.375C18.4375 11.6042 18.4948 11.8385 18.5469 12.0781C18.599 12.3177 18.6458 12.5625 18.6875 12.8125H22.5V15.3125H18.6875C18.6458 15.5625 18.6042 15.8073 18.5625 16.0469C18.5208 16.2865 18.4688 16.5208 18.4062 16.75L21.625 18.625L20.375 20.7812L17.4062 19.0625C16.7396 20.1875 15.8802 21.0938 14.8281 21.7812C13.776 22.4688 12.5833 22.8125 11.25 22.8125ZM8.875 5.75C9.22917 5.60417 9.60938 5.49479 10.0156 5.42188C10.4219 5.34896 10.8333 5.3125 11.25 5.3125C11.6667 5.3125 12.0677 5.34375 12.4531 5.40625C12.8385 5.46875 13.2083 5.57292 13.5625 5.71875C13.3958 5.23958 13.1042 4.84375 12.6875 4.53125C12.2708 4.21875 11.7917 4.0625 11.25 4.0625C10.7083 4.0625 10.2188 4.22396 9.78125 4.54688C9.34375 4.86979 9.04167 5.27083 8.875 5.75ZM11.25 20.3125C12.7708 20.3125 13.9844 19.6771 14.8906 18.4062C15.7969 17.1354 16.25 15.6875 16.25 14.0625C16.25 12.6042 15.8281 11.1979 14.9844 9.84375C14.1406 8.48958 12.8958 7.8125 11.25 7.8125C9.625 7.8125 8.38542 8.48438 7.53125 9.82812C6.67708 11.1719 6.25 12.5833 6.25 14.0625C6.25 15.6875 6.70312 17.1354 7.60938 18.4062C8.51562 19.6771 9.72917 20.3125 11.25 20.3125ZM10 17.8125V10.3125H12.5V17.8125H10Z" fill="#006D37"/>
                            </svg>